# xmcd
#
# Track frame offsets: 
#        150
#        8079
#        23481
#        42890
#        59822
#        65504
#        83077
#        101367
#
# Disc length: 1550 seconds
#
# Revision: 0
# Processed by: cddbd v1.5.2PL0 Copyright (c) Steve Scherf et al.
# Submitted via: ExactAudioCopy v0.99pb5
#
DISCID=5a060c08
DTITLE=Deez - Envy Me
DYEAR=2009
DGENRE=R&B
TTITLE0=Introduction - Envy Me
TTITLE1=³ªÀÇ ºû
TTITLE2=Devil's Candy
TTITLE3=Go! (Feat. Verbal Jint)
TTITLE4=Intermission - Where U R
TTITLE5=¾Æ´Ï?
TTITLE6=³Ê ÇÏ³ª¸é µÅ
TTITLE7=One, Two, Three (Feat. Choice37)
EXTD=
EXTT0=
EXTT1=
EXTT2=
EXTT3=
EXTT4=
EXTT5=
EXTT6=
EXTT7=
PLAYORDER=
